# xmcd
#
# Track frame offsets: 
#        150
#        17850
#        41837
#        74671
#        93795
#        119072
#        140595
#        157367
#        182062
#        205706
#
# Disc length: 3041 seconds
#
# Revision: 0
# Processed by: cddbd v1.5.2PL0 Copyright (c) Steve Scherf et al.
# Submitted via: ExactAudioCopy v0.99pb5
#
DISCID=990bdf0a
DTITLE=King King - Standing In The Shadow
DYEAR=2013
DGENRE=R&B
TTITLE0=More Than I Can Take
TTITLE1=Taken What's Mine
TTITLE2=A Long History Of Love
TTITLE3=Jealousy
TTITLE4=What Am I Supposed To Do
TTITLE5=One More Time Around
TTITLE6=Can't Keep From Trying
TTITLE7=Coming Home (Rest Your Eyes)
TTITLE8=Heavy Load
TTITLE9=Let Love In
EXTD=
EXTT0=
EXTT1=
EXTT2=
EXTT3=
EXTT4=
EXTT5=
EXTT6=
EXTT7=
EXTT8=
EXTT9=
PLAYORDER=
